<svg width="3143" height="578" xmlns="http://www.w3.org/2000/svg" xmlns:xlink="http://www.w3.org/1999/xlink" overflow="hidden"><defs><clipPath id="clip0"><rect x="-46" y="88" width="3143" height="578"/></clipPath></defs><g clip-path="url(#clip0)" transform="translate(46 -88)"><path d="M111.972 473.236-45 582.212 716.727 665 839 420.015 820.824 382 111.972 473.236Z" fill="#FFFFFF" fill-rule="evenodd"/><path d="M172 497.895 554.332 550.573 755 369 755 405.987 552.655 587 173.118 533.761 172 497.895Z" fill="#932057" fill-rule="evenodd"/><path d="M552.826 531 767 339.045 373.106 285 158 476.955 552.826 531Z" fill="#FFFFFF" fill-rule="evenodd"/><path d="M157 477 157 496.438 554 550 554 532.29 157 477Z" fill="#FFFFFF" fill-rule="evenodd"/><path d="M553 531.381 553 550 766 358.619 766 340 553 531.381Z" fill="#FFFFFF" fill-rule="evenodd"/><path d="M158 531 158 550.438 554 604 554 586.29 158 531Z" fill="#FFFFFF" fill-rule="evenodd"/><path d="M553 585.47 553 604 766 413.53 766 395 553 585.47Z" fill="#FFFFFF" fill-rule="evenodd"/><path d="M157 496 157 531.287 173 533 173 498.056 157 496Z" fill="#FFFFFF" fill-rule="evenodd"/><path d="M141 359.99 141 410.348 346.221 495 731 369.213 731 320 346.653 445.077 141 359.99Z" fill="#932057" fill-rule="evenodd"/><path d="M129 341.15 346.533 431 742 301.511 475.363 255 129 341.15Z" fill="#FFFFFF" fill-rule="evenodd"/><path d="M129 341 129 356.085 346 446 346 430.915 129 341Z" fill="#FFFFFF" fill-rule="evenodd"/><path d="M346 430.8 346 446 741 317.2 741 302 346 430.8Z" fill="#FFFFFF" fill-rule="evenodd"/><path d="M129 406 129 420.941 346 510 346 495.059 129 406Z" fill="#FFFFFF" fill-rule="evenodd"/><path d="M346 494.8 346 510 741 381.2 741 366 346 494.8Z" fill="#FFFFFF" fill-rule="evenodd"/><path d="M129 356 129 406.19 141 411 141 360.533 129 356Z" fill="#FFFFFF" fill-rule="evenodd"/><path d="M184 302.987 184 221.241 431.484 280.253 733 169 733 251.714 431.002 362 184 302.987Z" fill="#932057" fill-rule="evenodd"/><path d="M172 205.427 431.497 267 747 152.25 447.365 114 172 205.427Z" fill="#FFFFFF" fill-rule="evenodd"/><path d="M172 205 172 218.6 431 281 431 266.6 172 205Z" fill="#FFFFFF" fill-rule="evenodd"/><path d="M431 266.044 431 280 745 165.558 745 152 431 266.044Z" fill="#FFFFFF" fill-rule="evenodd"/><path d="M172 300 172 313.6 431 376 431 361.6 172 300Z" fill="#FFFFFF" fill-rule="evenodd"/><path d="M431 362.044 431 376 744 261.558 744 248 431 362.044Z" fill="#FFFFFF" fill-rule="evenodd"/><path d="M172 219 172 300.614 184 303 184 221.864 172 219Z" fill="#FFFFFF" fill-rule="evenodd"/><path d="M427.972 202.859C432.223 201.382 436.475 199.905 440.726 198.428 468.251 203.454 495.776 208.48 523.301 213.506 519.05 214.983 514.798 216.46 510.547 217.937 483.022 212.911 455.497 207.885 427.972 202.859ZM428.403 187.861C432.655 186.384 436.906 184.907 441.157 183.43 451.052 185.237 460.948 187.043 470.843 188.85 472.917 188.129 474.992 187.409 477.066 186.688 476.333 186.647 475.601 186.606 474.868 186.565 479.777 184.86 484.685 183.154 489.594 181.449 510.623 182.896 531.652 184.343 552.682 185.79 540.9 181.13 529.119 176.47 517.337 171.81 522.158 170.134 526.979 168.459 531.8 166.784 558.551 178.174 585.302 189.563 612.053 200.952 607.32 202.597 602.586 204.242 597.853 205.886 587.452 201.153 577.05 196.419 566.648 191.686 542.223 190.323 517.797 188.96 493.37 187.598 494.741 187.848 496.111 188.098 497.482 188.348 494.107 189.521 490.732 190.693 487.358 191.866 508.82 195.785 530.283 199.704 551.745 203.623 547.494 205.1 543.243 206.577 538.991 208.054 517.529 204.135 496.066 200.216 474.604 196.297 472.544 197.013 470.484 197.729 468.424 198.444 462.919 197.439 457.414 196.434 451.909 195.429 453.969 194.713 456.029 193.997 458.089 193.282 448.194 191.475 438.299 189.668 428.403 187.861ZM491.382 157.336C495.896 155.768 500.411 154.2 504.925 152.631 528.617 156.957 552.31 161.284 576.002 165.61 603.318 170.598 622.367 171.219 633.149 167.473 643.93 163.727 635.663 159.36 608.347 154.372 584.655 150.045 560.962 145.719 537.27 141.393 541.74 139.84 546.211 138.287 550.681 136.733 575.976 141.352 601.271 145.971 626.566 150.59 662.802 157.207 671.036 163.949 651.27 170.816 631.504 177.684 603.503 177.81 567.267 171.193 541.972 166.574 516.677 161.955 491.382 157.336ZM387.665 192.154C389.681 191.453 392.619 191.06 396.478 190.975 400.337 190.89 403.87 191.14 407.075 191.726 410.281 192.311 412.323 193.079 413.202 194.029 414.081 194.979 413.513 195.805 411.497 196.505 409.481 197.206 406.543 197.599 402.684 197.684 398.824 197.769 395.292 197.519 392.086 196.933 388.881 196.348 386.839 195.58 385.959 194.63 385.08 193.68 385.649 192.854 387.665 192.154ZM348.752 205.12C354.625 203.079 362.981 201.469 373.819 200.288 382.6 201.892 391.38 203.495 400.16 205.098 386.595 205.084 376.306 206.295 369.293 208.731 362.018 211.259 360.699 214.247 365.337 217.696 369.975 221.145 378.426 223.989 390.691 226.228 402.537 228.391 415.596 229.486 429.868 229.514 444.14 229.541 454.914 228.291 462.19 225.763 469.114 223.358 470.527 220.503 466.429 217.199 475.139 218.789 483.85 220.38 492.56 221.97 491.091 225.14 487.595 227.685 482.073 229.603 471.028 233.441 455.256 235.486 434.757 235.738 414.257 235.991 395.018 234.475 377.04 231.193 358.365 227.782 346.176 223.559 340.475 218.522 334.773 213.485 337.533 209.018 348.752 205.12Z" fill="#932057" fill-rule="evenodd"/><path d="M947.283 367.404C947.283 373.151 947.283 378.898 947.283 384.645 978.931 384.645 1010.58 384.645 1042.23 384.645 1042.23 378.898 1042.23 373.151 1042.23 367.404 1010.58 367.404 978.931 367.404 947.283 367.404ZM2779.83 361.515C2779.83 368.093 2779.83 374.67 2779.83 381.248 2802.08 381.248 2824.34 381.248 2846.6 381.248 2846.6 374.67 2846.6 368.093 2846.6 361.515 2824.34 361.515 2802.08 361.515 2779.83 361.515ZM2252.41 346.349C2252.41 357.076 2252.41 367.803 2252.41 378.53 2263.16 378.53 2273.92 378.53 2284.67 378.53 2284.67 367.803 2284.67 357.076 2284.67 346.349 2273.92 346.349 2263.16 346.349 2252.41 346.349ZM947.283 335.696C947.283 341.292 947.283 346.888 947.283 352.484 978.931 352.484 1010.58 352.484 1042.23 352.484 1042.23 346.888 1042.23 341.292 1042.23 335.696 1010.58 335.696 978.931 335.696 947.283 335.696ZM2779.83 325.957C2779.83 332.308 2779.83 338.659 2779.83 345.01 2802.08 345.01 2824.34 345.01 2846.6 345.01 2846.6 338.659 2846.6 332.308 2846.6 325.957 2824.34 325.957 2802.08 325.957 2779.83 325.957ZM1218.03 323.466C1218.03 330.572 1218.03 337.678 1218.03 344.784 1234.46 344.784 1250.89 344.784 1267.32 344.784 1267.32 337.678 1267.32 330.572 1267.32 323.466 1250.89 323.466 1234.46 323.466 1218.03 323.466ZM926.387 319.191C972.268 319.191 1018.15 319.191 1064.03 319.191 1064.03 348.927 1064.03 378.662 1064.03 408.397 1056.76 408.397 1049.49 408.397 1042.23 408.397 1042.23 405.982 1042.23 403.566 1042.23 401.15 1010.58 401.15 978.931 401.15 947.283 401.15 947.283 403.641 947.283 406.133 947.283 408.624 940.318 408.624 933.352 408.624 926.387 408.624 926.387 378.813 926.387 349.002 926.387 319.191ZM2759.84 308.546C2795.72 308.546 2831.61 308.546 2867.5 308.546 2867.5 341.453 2867.5 374.359 2867.5 407.265 2860.53 407.265 2853.57 407.265 2846.6 407.265 2846.6 404.245 2846.6 401.225 2846.6 398.206 2824.34 398.206 2802.08 398.206 2779.83 398.206 2779.83 401.603 2779.83 405 2779.83 408.397 2773.16 408.397 2766.5 408.397 2759.84 408.397 2759.84 375.114 2759.84 341.83 2759.84 308.546ZM2155.2 308.544C2159.21 312.162 2163.22 315.781 2167.24 319.4 2160.55 324.531 2153.03 329.439 2144.69 334.124 2136.36 338.808 2127.82 343.04 2119.08 346.82 2119.08 347.425 2119.08 348.029 2119.08 348.634 2148.54 348.634 2177.99 348.634 2207.44 348.634 2207.44 354.362 2207.44 360.09 2207.44 365.818 2177.99 365.818 2148.54 365.818 2119.08 365.818 2119.08 373.074 2119.08 380.33 2119.08 387.586 2119.15 392.508 2118.44 396.354 2116.95 399.125 2115.46 401.896 2112.77 403.931 2108.86 405.231 2104.83 406.64 2099.78 407.497 2093.7 407.804 2087.62 408.11 2080.19 408.232 2071.38 408.171 2070.77 405.363 2069.84 402.33 2068.57 399.07 2067.31 395.81 2065.98 392.889 2064.57 390.307 2071.03 390.524 2077.02 390.656 2082.51 390.703 2088.01 390.751 2091.72 390.769 2093.64 390.76 2095.43 390.784 2096.68 390.51 2097.39 389.938 2098.1 389.367 2098.44 388.356 2098.41 386.905 2098.41 379.876 2098.41 372.847 2098.41 365.818 2067.37 365.818 2036.33 365.818 2005.29 365.818 2005.29 360.09 2005.29 354.362 2005.29 348.634 2036.33 348.634 2067.37 348.634 2098.41 348.634 2098.41 345.913 2098.41 343.192 2098.41 340.471 2103.47 338.411 2108.64 336.068 2113.92 333.441 2119.2 330.815 2124.25 328.018 2129.08 325.051 2101.97 325.051 2074.87 325.051 2047.76 325.051 2047.76 319.927 2047.76 314.803 2047.76 309.679 2082.06 309.679 2116.36 309.679 2150.66 309.679 2152.17 309.3 2153.68 308.922 2155.2 308.544ZM2234.48 298.581C2256.88 298.581 2279.29 298.581 2301.69 298.581 2301.69 304.007 2301.69 309.433 2301.69 314.86 2279.29 314.86 2256.88 314.86 2234.48 314.86 2234.48 309.433 2234.48 304.007 2234.48 298.581ZM2629.23 291.324C2633.7 296.61 2638.17 301.896 2642.63 307.182 2636.8 308.759 2630.41 310.182 2623.47 311.449 2616.53 312.716 2609.29 313.856 2601.75 314.869 2601.75 323.481 2601.75 332.094 2601.75 340.707 2616.29 340.707 2630.82 340.707 2645.36 340.707 2645.36 346.737 2645.36 352.767 2645.36 358.797 2630.82 358.797 2616.29 358.797 2601.75 358.797 2601.75 367.489 2601.75 376.18 2601.75 384.871 2619.31 384.871 2636.88 384.871 2654.45 384.871 2654.45 391.128 2654.45 397.385 2654.45 403.641 2611.14 403.641 2567.83 403.641 2524.52 403.641 2524.52 397.385 2524.52 391.128 2524.52 384.871 2543.3 384.871 2562.08 384.871 2580.85 384.871 2580.85 376.18 2580.85 367.489 2580.85 358.797 2566.09 358.797 2551.33 358.797 2536.56 358.797 2536.56 352.767 2536.56 346.737 2536.56 340.707 2551.33 340.707 2566.09 340.707 2580.85 340.707 2580.85 332.923 2580.85 325.139 2580.85 317.356 2574.46 318.034 2568.1 318.599 2561.77 319.051 2555.44 319.503 2549.31 319.843 2543.38 320.069 2543.2 317.695 2542.59 314.982 2541.56 311.929 2540.53 308.877 2539.47 306.164 2538.38 303.79 2549.11 303.112 2560.08 302.202 2571.27 301.062 2582.47 299.922 2593.09 298.542 2603.15 296.923 2613.21 295.305 2621.91 293.438 2629.23 291.324ZM1223.71 285.417C1222.1 289.172 1220.32 292.942 1218.34 296.727 1216.37 300.511 1214.3 304.224 1212.12 307.867 1232.79 307.867 1253.46 307.867 1274.13 307.867 1271.86 304.324 1269.71 300.639 1267.69 296.812 1265.67 292.985 1263.8 289.187 1262.1 285.417 1249.3 285.417 1236.5 285.417 1223.71 285.417ZM3019.91 282.926C3026.27 284.362 3032.63 285.798 3038.99 287.234 3037.06 291.682 3035.13 296.103 3033.2 300.495 3031.27 304.887 3029.34 309.081 3027.4 313.076 3034.6 313.076 3041.79 313.076 3048.98 313.076 3048.98 318.578 3048.98 324.079 3048.98 329.581 3034.67 329.581 3020.36 329.581 3006.05 329.581 3006.05 336.083 3006.05 342.585 3006.05 349.087 3021.8 349.087 3037.55 349.087 3053.3 349.087 3053.3 354.74 3053.3 360.392 3053.3 366.045 3037.55 366.045 3021.8 366.045 3006.05 366.045 3006.05 378.429 3006.05 390.812 3006.05 403.196 2999.39 403.196 2992.73 403.196 2986.07 403.196 2986.07 390.812 2986.07 378.429 2986.07 366.045 2970.85 366.045 2955.63 366.045 2940.41 366.045 2940.41 360.392 2940.41 354.74 2940.41 349.087 2955.63 349.087 2970.85 349.087 2986.07 349.087 2986.07 342.585 2986.07 336.083 2986.07 329.581 2972.44 329.581 2958.81 329.581 2945.18 329.581 2945.18 324.079 2945.18 318.578 2945.18 313.076 2952.15 313.076 2959.11 313.076 2966.08 313.076 2965.11 309.222 2963.64 305.029 2961.68 300.495 2959.71 295.961 2957.62 291.767 2955.4 287.914 2960.93 286.478 2966.46 285.042 2971.98 283.607 2974.53 287.715 2976.87 292.136 2979 296.868 2981.12 301.6 2982.72 305.794 2983.79 309.449 2979.78 310.658 2975.77 311.867 2971.76 313.076 2984.17 313.076 2996.59 313.076 3009.01 313.076 3011.01 308.391 3013.02 303.309 3015.05 297.831 3017.08 292.353 3018.7 287.385 3019.91 282.926ZM2046.51 270.695C2046.66 274.177 2046.81 277.659 2046.96 281.142 2059.88 281.142 2072.8 281.142 2085.72 281.142 2084.48 279.557 2082.82 277.73 2080.73 275.663 2078.65 273.595 2076.76 271.939 2075.07 270.695 2065.55 270.695 2056.03 270.695 2046.51 270.695ZM2234.48 268.685C2256.88 268.685 2279.29 268.685 2301.69 268.685 2301.69 274.187 2301.69 279.688 2301.69 285.19 2279.29 285.19 2256.88 285.19 2234.48 285.19 2234.48 279.688 2234.48 274.187 2234.48 268.685ZM1122.86 265.967C1129.25 268.705 1135.95 271.994 1142.96 275.834 1149.97 279.674 1155.77 283.246 1160.34 286.55 1156.17 292.22 1152.01 297.889 1147.85 303.558 1143.52 300.119 1137.92 296.283 1131.07 292.051 1124.21 287.819 1117.54 284.1 1111.05 280.894 1114.99 275.918 1118.92 270.942 1122.86 265.967ZM2377.78 262.542C2377.78 269.044 2377.78 275.546 2377.78 282.048 2386.49 282.048 2395.21 282.048 2403.93 282.048 2403.93 275.546 2403.93 269.044 2403.93 262.542 2395.21 262.542 2386.49 262.542 2377.78 262.542ZM2334.4 262.542C2334.4 269.044 2334.4 275.546 2334.4 282.048 2342.81 282.048 2351.22 282.048 2359.64 282.048 2359.64 275.546 2359.64 269.044 2359.64 262.542 2351.22 262.542 2342.81 262.542 2334.4 262.542ZM1223.48 243.97C1223.48 251.453 1223.48 258.937 1223.48 266.42 1236.35 266.42 1249.22 266.42 1262.1 266.42 1262.1 258.937 1262.1 251.453 1262.1 243.97 1249.22 243.97 1236.35 243.97 1223.48 243.97ZM2557.91 229.475C2557.91 242.168 2557.91 254.86 2557.91 267.553 2579.41 267.553 2600.92 267.553 2622.42 267.553 2622.42 254.86 2622.42 242.168 2622.42 229.475 2600.92 229.475 2579.41 229.475 2557.91 229.475ZM2377.78 226.757C2377.78 233.184 2377.78 239.61 2377.78 246.037 2386.49 246.037 2395.21 246.037 2403.93 246.037 2403.93 239.61 2403.93 233.184 2403.93 226.757 2395.21 226.757 2386.49 226.757 2377.78 226.757ZM2334.4 226.757C2334.4 233.184 2334.4 239.61 2334.4 246.037 2342.81 246.037 2351.22 246.037 2359.64 246.037 2359.64 239.61 2359.64 233.184 2359.64 226.757 2351.22 226.757 2342.81 226.757 2334.4 226.757ZM2538.15 211.611C2573.05 211.611 2607.96 211.611 2642.86 211.611 2642.86 236.213 2642.86 260.815 2642.86 285.417 2607.96 285.417 2573.05 285.417 2538.15 285.417 2538.15 260.815 2538.15 236.213 2538.15 211.611ZM2315.57 209.799C2351.52 209.799 2387.48 209.799 2423.43 209.799 2423.43 239.535 2423.43 269.27 2423.43 299.006 2408.6 299.006 2393.76 299.006 2378.93 299.006 2378.93 304.446 2378.93 309.887 2378.93 315.328 2395.81 315.328 2412.69 315.328 2429.57 315.328 2429.57 321.664 2429.57 328.001 2429.57 334.337 2415.94 334.337 2402.32 334.337 2388.7 334.337 2394.79 343.837 2402.03 352.883 2410.42 361.475 2418.8 370.067 2427.23 376.958 2435.7 382.148 2433.22 384.065 2430.63 386.505 2427.92 389.468 2425.21 392.432 2422.96 395.269 2421.16 397.979 2413.91 392.419 2406.59 385.44 2399.21 377.044 2391.82 368.648 2385.06 359.625 2378.93 349.975 2378.93 369.524 2378.93 389.074 2378.93 408.624 2372.11 408.624 2365.3 408.624 2358.49 408.624 2358.49 389.754 2358.49 370.884 2358.49 352.014 2352.27 361.962 2345.33 371.013 2337.64 379.167 2329.96 387.322 2321.99 394.045 2313.75 399.338 2312.47 397.371 2310.89 395.249 2309.01 392.973 2307.12 390.697 2305.14 388.521 2303.06 386.444 2303.06 389.458 2303.06 392.473 2303.06 395.488 2286.18 395.488 2269.3 395.488 2252.41 395.488 2252.41 398.885 2252.41 402.282 2252.41 405.68 2246.36 405.68 2240.3 405.68 2234.24 405.68 2234.24 380.172 2234.24 354.664 2234.24 329.156 2257.18 329.156 2280.12 329.156 2303.06 329.156 2303.06 346.519 2303.06 363.881 2303.06 381.243 2312.06 375.892 2320.59 369.095 2328.67 360.852 2336.75 352.609 2343.58 343.771 2349.17 334.337 2335.39 334.337 2321.62 334.337 2307.84 334.337 2307.84 328.001 2307.84 321.664 2307.84 315.328 2324.72 315.328 2341.6 315.328 2358.49 315.328 2358.49 309.887 2358.49 304.446 2358.49 299.006 2344.18 299.006 2329.88 299.006 2315.57 299.006 2315.57 269.27 2315.57 239.535 2315.57 209.799ZM1136.26 205.27C1142.3 208.346 1148.62 211.932 1155.2 216.027 1161.78 220.122 1167.13 223.934 1171.24 227.462 1166.92 232.889 1162.61 238.316 1158.29 243.744 1154.3 240.102 1149.05 236.078 1142.54 231.672 1136.02 227.267 1129.69 223.297 1123.54 219.764 1127.78 214.933 1132.02 210.101 1136.26 205.27ZM2116.13 202.778C2120.9 204.062 2125.67 205.345 2130.44 206.628 2127.07 211.19 2123.13 215.637 2118.63 219.968 2121.36 221.67 2123.9 223.36 2126.24 225.038 2128.58 226.717 2130.66 228.353 2132.48 229.948 2129 233.117 2125.52 236.286 2122.04 239.455 2120.31 237.755 2118.25 236.012 2115.85 234.225 2113.44 232.438 2110.81 230.634 2107.95 228.813 2104.75 231.219 2101.5 233.494 2098.19 235.639 2094.87 237.783 2091.62 239.658 2088.42 241.263 2087.07 240.011 2085.28 238.391 2083.05 236.403 2080.82 234.415 2078.75 232.794 2076.84 231.538 2080.04 230.166 2083.23 228.595 2086.4 226.826 2089.58 225.057 2092.6 223.148 2095.46 221.098 2093.18 219.728 2090.82 218.4 2088.39 217.115 2085.96 215.829 2083.55 214.671 2081.15 213.64 2084.56 210.699 2087.97 207.758 2091.37 204.817 2093.78 205.954 2096.29 207.189 2098.9 208.523 2101.5 209.858 2104.07 211.262 2106.59 212.736 2108.52 211.134 2110.28 209.476 2111.87 207.759 2113.46 206.043 2114.88 204.383 2116.13 202.778ZM2067.59 202.552C2070.61 206.7 2073.63 210.848 2076.66 214.996 2071.71 216.818 2066.36 218.485 2060.59 219.997 2054.82 221.509 2049.07 222.782 2043.32 223.816 2043.55 226.844 2043.78 229.872 2044.01 232.901 2054.36 232.901 2064.72 232.901 2075.07 232.901 2075.07 237.421 2075.07 241.941 2075.07 246.461 2064.94 246.461 2054.82 246.461 2044.69 246.461 2044.92 249.944 2045.15 253.426 2045.38 256.908 2055.58 256.908 2065.78 256.908 2075.98 256.908 2075.98 261.353 2075.98 265.798 2075.98 270.243 2079.18 268.769 2082.41 267.14 2085.66 265.355 2088.92 263.571 2092.04 261.659 2095.01 259.62 2092.62 258.136 2090.16 256.692 2087.65 255.288 2085.14 253.884 2082.68 252.607 2080.28 251.458 2083.68 248.511 2087.08 245.565 2090.48 242.619 2093 243.867 2095.62 245.215 2098.33 246.665 2101.05 248.114 2103.73 249.636 2106.36 251.23 2108.41 249.418 2110.28 247.595 2111.99 245.76 2113.69 243.925 2115.22 242.049 2116.58 240.133 2121.35 241.64 2126.12 243.146 2130.89 244.653 2127.3 249.378 2123.13 253.991 2118.4 258.49 2124.53 262.558 2129.53 266.401 2133.39 270.017 2129.83 273.271 2126.28 276.525 2122.72 279.779 2120.89 277.957 2118.7 276.037 2116.13 274.018 2113.57 271.999 2110.69 269.912 2107.5 267.757 2104.18 270.352 2100.77 272.752 2097.29 274.955 2093.8 277.158 2090.4 279.221 2087.08 281.142 2113.5 281.142 2139.91 281.142 2166.33 281.142 2166.45 279.443 2166.61 277.73 2166.81 276.004 2167.01 274.277 2167.23 272.507 2167.46 270.695 2157.39 270.695 2147.32 270.695 2137.25 270.695 2137.25 266.099 2137.25 261.504 2137.25 256.908 2147.63 256.908 2158 256.908 2168.37 256.908 2168.67 253.426 2168.98 249.944 2169.28 246.461 2158.98 246.461 2148.69 246.461 2138.39 246.461 2138.39 241.941 2138.39 237.421 2138.39 232.901 2148.99 232.901 2159.59 232.901 2170.19 232.901 2170.34 229.494 2170.49 226.087 2170.64 222.68 2159.51 222.68 2148.38 222.68 2137.25 222.68 2137.25 218.085 2137.25 213.489 2137.25 208.893 2155.27 208.893 2173.29 208.893 2191.31 208.893 2190.72 220.636 2189.97 232.987 2189.07 245.948 2188.17 258.908 2187.25 270.64 2186.32 281.142 2192.07 281.142 2197.82 281.142 2203.58 281.142 2203.58 295.552 2203.58 309.963 2203.58 324.373 2196.61 324.373 2189.65 324.373 2182.68 324.373 2182.68 315.238 2182.68 306.103 2182.68 296.967 2131.73 296.967 2080.77 296.967 2029.82 296.967 2029.82 306.103 2029.82 315.238 2029.82 324.373 2023.16 324.373 2016.49 324.373 2009.83 324.373 2009.83 309.963 2009.83 295.552 2009.83 281.142 2015.59 281.142 2021.35 281.142 2027.1 281.142 2025.74 258.792 2024.37 236.442 2023 214.092 2029.92 212.848 2037.53 211.096 2045.84 208.833 2054.15 206.57 2061.4 204.477 2067.59 202.552ZM2514.76 202.325C2518.69 208.059 2522.63 213.792 2526.57 219.526 2522.8 221.094 2518.75 222.536 2514.44 223.85 2510.13 225.165 2505.69 226.436 2501.13 227.666 2501.13 240.051 2501.13 252.436 2501.13 264.821 2510.29 264.821 2519.45 264.821 2528.61 264.821 2528.61 271.313 2528.61 277.806 2528.61 284.298 2519.45 284.298 2510.29 284.298 2501.13 284.298 2501.13 285.885 2501.13 287.471 2501.13 289.058 2503.33 291.683 2506.35 295.469 2510.18 300.414 2514.01 305.36 2517.72 310.218 2521.3 314.989 2524.88 319.76 2527.39 323.196 2528.84 325.298 2524.9 331.037 2520.96 336.777 2517.03 342.516 2515.46 338.856 2513.2 334.276 2510.27 328.774 2507.34 323.273 2504.29 317.733 2501.13 312.156 2501.13 344.387 2501.13 376.619 2501.13 408.85 2494.47 408.85 2487.8 408.85 2481.14 408.85 2481.14 377.523 2481.14 346.196 2481.14 314.869 2477.37 325.887 2473.21 336.306 2468.68 346.126 2464.14 355.947 2459.36 364.327 2454.34 371.268 2453.43 368.169 2452 364.675 2450.05 360.787 2448.1 356.898 2446.27 353.521 2444.57 350.657 2450.6 342.658 2456.43 332.676 2462.06 320.71 2467.69 308.745 2472.39 296.607 2476.14 284.298 2466.75 284.298 2457.37 284.298 2447.98 284.298 2447.98 277.806 2447.98 271.313 2447.98 264.821 2459.03 264.821 2470.09 264.821 2481.14 264.821 2481.14 254.096 2481.14 243.372 2481.14 232.647 2476.93 233.44 2472.75 234.177 2468.59 234.856 2464.44 235.536 2460.37 236.159 2456.38 236.726 2455.9 234.347 2455.16 231.63 2454.14 228.574 2453.12 225.519 2451.98 222.804 2450.7 220.43 2462.33 218.263 2473.89 215.643 2485.37 212.569 2496.85 209.496 2506.65 206.081 2514.76 202.325ZM1054.04 201.858C1059.19 207.52 1064.33 213.182 1069.48 218.844 1060.12 221.105 1049.94 223.152 1038.93 224.988 1027.93 226.823 1016.38 228.475 1004.29 229.942 1004.29 237.345 1004.29 244.749 1004.29 252.152 1034.05 252.152 1063.8 252.152 1093.56 252.152 1093.56 258.484 1093.56 264.816 1093.56 271.148 1072.36 271.148 1051.16 271.148 1029.96 271.148 1042.95 278.206 1055.42 285.505 1067.38 293.045 1079.34 300.585 1089.21 307.487 1096.97 313.752 1092.88 319.183 1088.79 324.613 1084.7 330.044 1078.89 324.845 1071.59 319.2 1062.8 313.107 1054 307.014 1044.53 300.895 1034.38 294.749 1024.22 288.603 1014.2 282.851 1004.29 277.493 1004.29 289.579 1004.29 301.666 1004.29 313.752 997.026 313.752 989.758 313.752 982.49 313.752 982.49 301.439 982.49 289.126 982.49 276.813 971.606 288.017 959.189 298.016 945.239 306.809 931.289 315.603 917.055 322.594 902.537 327.783 900.838 325.046 898.614 321.982 895.865 318.591 893.116 315.2 890.494 312.303 888 309.9 901.368 305.962 914.495 300.637 927.38 293.923 940.266 287.21 951.746 279.618 961.82 271.148 939.031 271.148 916.241 271.148 893.452 271.148 893.452 264.816 893.452 258.484 893.452 252.152 923.131 252.152 952.81 252.152 982.49 252.152 982.49 245.428 982.49 238.704 982.49 231.98 971.44 233 960.434 233.849 949.469 234.528 938.505 235.208 927.783 235.717 917.301 236.057 917.012 233.424 916.341 230.423 915.285 227.054 914.23 223.686 913.161 220.798 912.077 218.391 929.018 217.638 946.267 216.528 963.822 215.061 981.378 213.595 997.987 211.763 1013.65 209.567 1029.31 207.371 1042.77 204.801 1054.04 201.858ZM2758.7 201.193C2765.67 201.193 2772.63 201.193 2779.6 201.193 2779.6 209.799 2779.6 218.406 2779.6 227.012 2809.5 227.012 2839.41 227.012 2869.32 227.012 2869.32 233.042 2869.32 239.072 2869.32 245.102 2839.41 245.102 2809.5 245.102 2779.6 245.102 2779.6 250.467 2779.6 255.832 2779.6 261.197 2779.49 265.566 2780.33 268.674 2782.1 270.521 2783.87 272.369 2787.2 273.267 2792.09 273.215 2810.72 273.215 2829.34 273.215 2847.97 273.215 2852.18 273.219 2856.87 273.097 2862.02 272.846 2867.17 272.596 2871.35 272.189 2874.54 271.627 2874.88 274.574 2875.23 277.731 2875.59 281.1 2875.96 284.469 2876.36 287.343 2876.81 289.722 2874.25 290.283 2870.4 290.688 2865.26 290.938 2860.11 291.187 2854.73 291.31 2849.1 291.305 2830.17 291.305 2811.25 291.305 2792.32 291.305 2779.69 291.442 2770.88 289.189 2765.88 284.546 2760.89 279.902 2758.5 272.044 2758.7 260.972 2758.7 241.046 2758.7 221.119 2758.7 201.193ZM1203.04 200.966C1209.85 200.966 1216.67 200.966 1223.48 200.966 1223.48 209.044 1223.48 217.122 1223.48 225.2 1236.35 225.2 1249.22 225.2 1262.1 225.2 1262.1 217.122 1262.1 209.044 1262.1 200.966 1268.99 200.966 1275.87 200.966 1282.76 200.966 1282.76 209.044 1282.76 217.122 1282.76 225.2 1293.36 225.2 1303.96 225.2 1314.56 225.2 1314.56 231.457 1314.56 237.713 1314.56 243.97 1303.96 243.97 1293.36 243.97 1282.76 243.97 1282.76 251.453 1282.76 258.937 1282.76 266.42 1295.48 266.42 1308.2 266.42 1320.92 266.42 1320.92 272.752 1320.92 279.084 1320.92 285.417 1308.2 285.417 1295.48 285.417 1282.76 285.417 1287.54 294.061 1293.44 302.105 1300.45 309.549 1307.47 316.993 1314.9 322.993 1322.74 327.548 1320.24 329.603 1317.58 332.183 1314.76 335.287 1311.95 338.391 1309.69 341.254 1307.98 343.877 1303.76 341.131 1299.64 337.891 1295.63 334.154 1291.61 330.417 1287.78 326.327 1284.13 321.883 1284.13 334.717 1284.13 347.55 1284.13 360.383 1262.1 360.383 1240.06 360.383 1218.03 360.383 1218.03 366.58 1218.03 372.776 1218.03 378.973 1217.84 382.842 1218.79 385.42 1220.87 386.71 1222.95 387.999 1227.31 388.594 1233.93 388.495 1249.3 388.495 1264.67 388.495 1280.04 388.495 1285.42 388.779 1289.03 387.305 1290.86 384.074 1292.69 380.844 1293.85 374.156 1294.35 364.01 1296.63 365.512 1299.39 366.872 1302.61 368.091 1305.83 369.31 1308.76 370.216 1311.38 370.812 1310.31 384.245 1307.69 393.445 1303.55 398.41 1299.4 403.375 1292.02 405.723 1281.4 405.453 1265.2 405.453 1249 405.453 1232.79 405.453 1220.08 405.689 1211.32 403.974 1206.5 400.306 1201.69 396.639 1199.4 389.603 1199.63 379.2 1199.63 361.311 1199.63 343.422 1199.63 325.533 1195.97 330.077 1192.11 334.294 1188.05 338.184 1183.99 342.074 1179.9 345.548 1175.78 348.606 1174.34 346.482 1172.51 344.161 1170.28 341.641 1168.04 339.122 1165.86 336.913 1163.74 335.017 1159.47 346.265 1154.84 357.741 1149.86 369.442 1144.88 381.144 1139.97 392.166 1135.13 402.509 1128.84 398.508 1122.56 394.506 1116.27 390.505 1120.96 381.842 1126.12 371.367 1131.75 359.081 1137.37 346.794 1142.59 334.394 1147.39 321.881 1152.24 325.429 1157.08 328.977 1161.93 332.525 1169.79 327.264 1177.29 320.46 1184.44 312.113 1191.59 303.767 1197.56 294.868 1202.36 285.417 1189.79 285.417 1177.22 285.417 1164.65 285.417 1164.65 279.084 1164.65 272.752 1164.65 266.42 1177.45 266.42 1190.24 266.42 1203.04 266.42 1203.04 258.937 1203.04 251.453 1203.04 243.97 1193.35 243.97 1183.66 243.97 1173.97 243.97 1173.97 237.713 1173.97 231.457 1173.97 225.2 1183.66 225.2 1193.35 225.2 1203.04 225.2 1203.04 217.122 1203.04 209.044 1203.04 200.966ZM1872.19 200.952C1879.83 200.952 1887.48 200.952 1895.13 200.952 1895.06 210.181 1894.85 220.09 1894.47 230.678 1894.1 241.266 1893.26 252.194 1891.95 263.462 1922.46 263.462 1952.97 263.462 1983.48 263.462 1983.48 270.709 1983.48 277.957 1983.48 285.204 1955.85 285.204 1928.21 285.204 1900.58 285.204 1908.28 308.999 1919.34 329.864 1933.77 347.799 1948.2 365.734 1966.13 379.294 1987.57 388.481 1984.85 390.887 1982.01 393.945 1979.05 397.654 1976.1 401.362 1973.72 404.873 1971.9 408.185 1950.77 398.215 1933.06 384.352 1918.78 366.597 1904.49 348.842 1892.97 327.901 1884.22 303.776 1878.72 324.546 1869.11 344.043 1855.38 362.265 1841.64 380.488 1822.04 395.795 1796.55 408.185 1794.76 405.255 1792.38 402.169 1789.42 398.928 1786.46 395.686 1783.46 392.883 1780.42 390.519 1798.32 382.563 1813.02 373.009 1824.51 361.857 1836 350.704 1845 338.583 1851.49 325.493 1857.98 312.403 1862.69 298.974 1865.6 285.204 1838.72 285.204 1811.84 285.204 1784.96 285.204 1784.96 277.957 1784.96 270.709 1784.96 263.462 1813.13 263.462 1841.29 263.462 1869.46 263.462 1870.75 252.081 1871.52 241.096 1871.76 230.508 1872 219.92 1872.14 210.068 1872.19 200.952ZM2987.88 200.74C2995.61 201.495 3003.33 202.25 3011.05 203.005 3010.33 209.158 3009.5 215.424 3008.55 221.803 3037.7 221.803 3066.85 221.803 3096 221.803 3096 228.361 3096 234.92 3096 241.479 3065.87 241.479 3035.73 241.479 3005.6 241.479 3005.14 245.117 3004.64 248.67 3004.09 252.138 3003.55 255.606 3002.99 258.932 3002.42 262.117 3030.21 262.117 3057.99 262.117 3085.78 262.117 3085.78 303.26 3085.78 344.403 3085.78 385.545 3085.82 391.125 3085 395.415 3083.31 398.418 3081.62 401.42 3078.81 403.616 3074.88 405.005 3070.89 406.522 3065.63 407.445 3059.09 407.775 3052.55 408.105 3044.79 408.237 3035.81 408.171 3035.08 405.453 3034.03 402.409 3032.66 399.041 3031.28 395.673 3029.83 392.686 3028.31 390.08 3035.01 390.401 3041.26 390.552 3047.05 390.533 3052.84 390.514 3056.82 390.439 3058.98 390.307 3060.98 390.335 3062.36 389.995 3063.12 389.287 3063.88 388.578 3064.24 387.331 3064.2 385.545 3064.2 350.886 3064.2 316.226 3064.2 281.566 3019.23 281.566 2974.25 281.566 2929.28 281.566 2929.28 323.768 2929.28 365.969 2929.28 408.171 2922.24 408.171 2915.2 408.171 2908.16 408.171 2908.16 359.486 2908.16 310.802 2908.16 262.117 2932.76 262.117 2957.37 262.117 2981.98 262.117 2982.34 259.032 2982.75 255.734 2983.23 252.223 2983.7 248.712 2984.12 245.131 2984.48 241.479 2955.48 241.479 2926.48 241.479 2897.48 241.479 2897.48 234.92 2897.48 228.361 2897.48 221.803 2927.16 221.803 2956.84 221.803 2986.52 221.803 2986.86 218.052 2987.14 214.4 2987.37 210.847 2987.6 207.294 2987.77 203.925 2987.88 200.74ZM2701.69 200.726C2708.66 200.726 2715.62 200.726 2722.59 200.726 2722.59 215.372 2722.59 230.018 2722.59 244.664 2730.61 244.664 2738.64 244.664 2746.66 244.664 2746.66 251.383 2746.66 258.102 2746.66 264.821 2738.64 264.821 2730.61 264.821 2722.59 264.821 2722.59 277.657 2722.59 290.493 2722.59 303.329 2730.76 301.06 2738.94 298.791 2747.12 296.523 2748.03 303.093 2748.93 309.664 2749.84 316.234 2740.76 318.872 2731.67 321.51 2722.59 324.148 2722.59 344.233 2722.59 364.318 2722.59 384.402 2722.63 389.877 2721.98 394.161 2720.63 397.257 2719.28 400.353 2716.98 402.712 2713.73 404.335 2710.37 405.883 2706.12 406.921 2700.98 407.449 2695.84 407.978 2689.49 408.223 2681.93 408.185 2681.44 405.42 2680.6 402.174 2679.4 398.446 2678.2 394.719 2676.85 391.473 2675.34 388.708 2680.26 388.821 2684.79 388.877 2688.91 388.877 2693.04 388.877 2695.86 388.821 2697.37 388.708 2698.85 388.741 2699.93 388.448 2700.64 387.829 2701.34 387.211 2701.69 386.069 2701.69 384.402 2701.69 366.357 2701.69 348.312 2701.69 330.267 2696.57 331.732 2691.64 333.111 2686.9 334.406 2682.15 335.701 2677.62 336.967 2673.3 338.206 2671.41 331.334 2669.51 324.462 2667.62 317.591 2672.42 316.465 2677.7 315.212 2683.46 313.832 2689.23 312.451 2695.3 310.916 2701.69 309.225 2701.69 294.423 2701.69 279.622 2701.69 264.821 2691.54 264.821 2681.4 264.821 2671.25 264.821 2671.25 258.102 2671.25 251.383 2671.25 244.664 2681.4 244.664 2691.54 244.664 2701.69 244.664 2701.69 230.018 2701.69 215.372 2701.69 200.726ZM1474.7 200.513C1481.36 200.513 1488.02 200.513 1494.68 200.513 1494.58 206.158 1494.56 211.769 1494.63 217.343 1494.69 222.918 1494.79 228.482 1494.91 234.033 1503.16 234.033 1511.42 234.033 1519.67 234.033 1516.95 230.301 1513.58 226.257 1509.56 221.902 1505.54 217.546 1501.49 213.503 1497.41 209.771 1502.25 206.836 1507.1 203.9 1511.95 200.965 1516.75 204.833 1521.45 209.131 1526.03 213.859 1530.61 218.588 1534.17 222.893 1536.7 226.777 1532.99 229.196 1529.28 231.614 1525.57 234.033 1530.65 234.033 1535.72 234.033 1540.79 234.033 1540.79 240.365 1540.79 246.697 1540.79 253.029 1525.65 253.029 1510.51 253.029 1495.36 253.029 1495.94 267.008 1496.78 280.242 1497.86 292.731 1498.95 305.22 1500.24 316.749 1501.72 327.316 1505.46 319.818 1508.78 311.827 1511.66 303.342 1514.55 294.857 1517.07 286.021 1519.21 276.835 1525.57 277.968 1531.93 279.102 1538.29 280.235 1534.77 294.838 1530.41 308.527 1525.21 321.302 1520 334.076 1513.99 345.904 1507.18 356.784 1509.56 366.244 1512.12 373.572 1514.84 378.768 1517.57 383.964 1520.46 386.598 1523.53 386.669 1525.35 386.73 1526.82 383.888 1527.93 378.145 1529.04 372.402 1529.77 363.395 1530.12 351.123 1532.24 353.431 1534.69 355.553 1537.47 357.49 1540.25 359.427 1542.87 360.925 1545.34 361.984 1544.13 378.786 1541.72 390.421 1538.1 396.889 1534.48 403.358 1528.71 406.444 1520.8 406.147 1514.81 406.071 1509.53 403.448 1504.96 398.275 1500.39 393.103 1496.36 385.834 1492.87 376.468 1487.75 382.602 1482.25 388.351 1476.37 393.717 1470.49 399.083 1464.25 403.981 1457.66 408.412 1456.12 406.336 1453.87 403.863 1450.9 400.994 1447.94 398.125 1445.35 395.766 1443.12 393.917 1451.75 388.696 1459.7 382.712 1466.97 375.964 1474.24 369.217 1480.83 361.767 1486.73 353.616 1483.8 339.907 1481.49 324.501 1479.78 307.398 1478.07 290.295 1476.83 272.172 1476.06 253.029 1459.63 253.029 1443.2 253.029 1426.77 253.029 1426.77 262.249 1426.77 271.469 1426.77 280.689 1440.62 280.689 1454.48 280.689 1468.34 280.689 1468.34 280.858 1468.33 281.819 1468.31 283.572 1468.28 285.324 1468.22 286.85 1468.11 288.15 1467.9 305.099 1467.61 318.843 1467.24 329.382 1466.87 339.921 1466.32 347.943 1465.57 353.447 1464.82 358.952 1463.77 362.627 1462.43 364.472 1460.86 366.483 1459.11 368 1457.18 369.022 1455.24 370.044 1452.98 370.713 1450.39 371.028 1448.06 371.373 1445.17 371.589 1441.7 371.679 1438.24 371.769 1434.55 371.703 1430.63 371.481 1430.39 368.777 1429.85 365.819 1428.98 362.606 1428.12 359.393 1427.01 356.548 1425.63 354.069 1429.2 354.503 1432.35 354.768 1435.09 354.862 1437.83 354.957 1439.9 354.994 1441.31 354.976 1442.64 354.99 1443.72 354.791 1444.54 354.381 1445.37 353.97 1446.1 353.262 1446.76 352.256 1447.87 350.953 1448.71 346.195 1449.26 337.981 1449.81 329.767 1450.18 316.397 1450.39 297.873 1442.52 297.873 1434.64 297.873 1426.77 297.873 1426.77 300.441 1426.77 303.009 1426.77 305.577 1426.87 316.547 1426.22 328.266 1424.81 340.733 1423.4 353.199 1420.65 365.4 1416.54 377.336 1412.43 389.271 1406.38 399.927 1398.38 409.303 1396.6 407.128 1394.13 404.741 1390.97 402.141 1387.8 399.541 1385.05 397.55 1382.7 396.167 1387.9 390.137 1392.11 383.626 1395.34 376.633 1398.57 369.64 1401.02 362.336 1402.69 354.721 1391.91 359.17 1381.22 363.521 1370.64 367.772 1360.05 372.023 1350.22 375.977 1341.14 379.634 1338.87 372.688 1336.6 365.743 1334.32 358.797 1337.97 357.66 1341.92 356.367 1346.16 354.919 1350.41 353.47 1354.87 351.894 1359.54 350.191 1359.54 324.981 1359.54 299.77 1359.54 274.56 1352.19 274.56 1344.85 274.56 1337.5 274.56 1337.5 268.067 1337.5 261.574 1337.5 255.082 1344.85 255.082 1352.19 255.082 1359.54 255.082 1359.54 237.871 1359.54 220.66 1359.54 203.449 1366.05 203.449 1372.56 203.449 1379.07 203.449 1379.07 220.66 1379.07 237.871 1379.07 255.082 1385.73 255.082 1392.4 255.082 1399.06 255.082 1399.06 261.574 1399.06 268.067 1399.06 274.56 1392.4 274.56 1385.73 274.56 1379.07 274.56 1379.07 297.43 1379.07 320.3 1379.07 343.17 1385.73 340.754 1392.4 338.338 1399.06 335.923 1400.35 342.038 1401.63 348.153 1402.92 354.268 1404.69 345.845 1405.86 337.494 1406.44 329.213 1407.02 320.932 1407.28 312.977 1407.24 305.347 1407.24 281.576 1407.24 257.804 1407.24 234.033 1429.95 234.033 1452.66 234.033 1475.38 234.033 1475.15 228.467 1474.98 222.876 1474.87 217.258 1474.75 211.641 1474.7 206.059 1474.7 200.513ZM2266.27 199.834C2269.53 204.613 2272.71 209.658 2275.81 214.97 2278.9 220.282 2281.4 225.043 2283.3 229.254 2277.7 232.357 2272.1 235.46 2266.5 238.563 2280.66 238.563 2294.82 238.563 2308.98 238.563 2308.98 244.14 2308.98 249.717 2308.98 255.294 2281.04 255.294 2253.1 255.294 2225.16 255.294 2225.16 249.717 2225.16 244.14 2225.16 238.563 2238.78 238.563 2252.41 238.563 2266.04 238.563 2264.36 234.193 2262.04 229.206 2259.08 223.602 2256.13 217.998 2253.07 212.793 2249.91 207.987 2255.37 205.27 2260.82 202.552 2266.27 199.834ZM1660.72 198.914C1663.92 204.326 1667.17 210.148 1670.46 216.381 1673.75 222.614 1676.26 228.041 1677.98 232.66 1706.38 232.66 1734.77 232.66 1763.16 232.66 1763.16 239.53 1763.16 246.4 1763.16 253.27 1732.57 253.27 1701.98 253.27 1671.4 253.27 1671.4 262.631 1671.4 271.993 1671.4 281.354 1695.7 281.354 1720 281.354 1744.31 281.354 1744.31 307.249 1744.31 333.143 1744.31 359.038 1744.39 364.554 1743.66 368.98 1742.12 372.316 1740.58 375.652 1737.75 378.096 1733.63 379.648 1729.46 381.285 1724.12 382.314 1717.62 382.734 1711.12 383.154 1703.28 383.333 1694.11 383.272 1693.6 380.191 1692.63 376.727 1691.21 372.882 1689.79 369.036 1688.26 365.63 1686.61 362.662 1693.64 362.879 1700.03 363.011 1705.81 363.058 1711.58 363.105 1715.48 363.124 1717.5 363.115 1719.4 363.035 1720.72 362.685 1721.45 362.067 1722.19 361.449 1722.54 360.364 1722.5 358.812 1722.5 339.862 1722.5 320.913 1722.5 301.964 1705.47 301.964 1688.43 301.964 1671.4 301.964 1671.4 337.296 1671.4 372.627 1671.4 407.959 1664.05 407.959 1656.71 407.959 1649.36 407.959 1649.36 372.627 1649.36 337.296 1649.36 301.964 1633.39 301.964 1617.41 301.964 1601.44 301.964 1601.44 329.218 1601.44 356.471 1601.44 383.725 1594.32 383.725 1587.2 383.725 1580.09 383.725 1580.09 349.601 1580.09 315.478 1580.09 281.354 1603.18 281.354 1626.27 281.354 1649.36 281.354 1649.36 271.993 1649.36 262.631 1649.36 253.27 1619.38 253.27 1589.4 253.27 1559.42 253.27 1559.42 246.4 1559.42 239.53 1559.42 232.66 1590.76 232.66 1622.11 232.66 1653.45 232.66 1651.59 228.267 1649.47 223.634 1647.09 218.759 1644.72 213.885 1642.37 209.308 1640.05 205.029 1646.94 202.991 1653.83 200.952 1660.72 198.914Z" fill="#FFFFFF" fill-rule="evenodd"/><path d="M1162.75 505.948C1168.84 505.948 1174.92 505.948 1181.01 505.948 1182.85 505.948 1184.25 506.351 1185.21 507.157 1186.17 507.963 1186.89 508.878 1187.37 509.904 1196.5 532.32 1205.62 554.736 1214.75 577.152 1215.39 578.69 1216.01 580.228 1216.61 581.767 1217.21 583.305 1217.71 584.843 1218.11 586.382 1218.59 584.77 1219.13 583.177 1219.73 581.602 1220.33 580.027 1220.95 578.47 1221.59 576.932 1230.44 554.589 1239.29 532.247 1248.13 509.904 1248.61 508.805 1249.41 507.871 1250.53 507.102 1251.65 506.333 1252.89 505.948 1254.26 505.948 1259.86 505.948 1265.46 505.948 1271.07 505.948 1250.89 552.318 1230.72 598.688 1210.55 645.058 1209.91 646.524 1209.05 647.659 1207.96 648.465 1206.88 649.271 1205.3 649.673 1203.22 649.673 1197.98 649.673 1192.73 649.673 1187.49 649.673 1194.21 635.462 1200.94 621.251 1207.66 607.039 1192.69 573.342 1177.72 539.645 1162.75 505.948ZM1049.97 505.948C1057.02 505.948 1064.06 505.948 1071.11 505.948 1071.11 541.77 1071.11 577.591 1071.11 613.413 1064.06 613.413 1057.02 613.413 1049.97 613.413 1049.97 577.591 1049.97 541.77 1049.97 505.948ZM1116.15 471.116C1119.75 471.116 1123.35 471.116 1126.95 471.116 1126.95 483.386 1126.95 495.656 1126.95 507.926 1137.72 507.926 1148.49 507.926 1159.26 507.926 1159.26 512.614 1159.26 517.303 1159.26 521.991 1148.49 521.991 1137.72 521.991 1126.95 521.991 1126.95 543.381 1126.95 564.772 1126.95 586.162 1126.95 590.557 1128.06 593.854 1130.26 596.051 1132.46 598.249 1135.32 599.348 1138.84 599.348 1140.92 599.348 1142.71 599.091 1144.19 598.578 1145.67 598.066 1146.93 597.48 1147.97 596.82 1149.01 596.161 1149.91 595.575 1150.67 595.062 1151.43 594.549 1152.13 594.293 1152.77 594.293 1153.49 594.293 1154.07 594.44 1154.51 594.733 1154.95 595.026 1155.37 595.502 1155.77 596.161 1157.86 599.238 1159.94 602.314 1162.02 605.391 1158.42 608.468 1154.17 610.849 1149.29 612.533 1144.41 614.218 1139.32 615.061 1134.04 615.061 1124.99 615.061 1118.03 612.68 1113.15 607.918 1108.26 603.157 1105.82 596.344 1105.82 587.48 1105.82 565.651 1105.82 543.821 1105.82 521.991 1101.34 521.991 1096.85 521.991 1092.37 521.991 1091.17 521.991 1090.15 521.625 1089.31 520.892 1088.47 520.16 1088.05 519.097 1088.05 517.706 1088.05 515.142 1088.05 512.578 1088.05 510.014 1094.21 509.281 1100.38 508.549 1106.54 507.816 1108.18 496.791 1109.82 485.767 1111.46 474.742 1111.62 473.643 1112.12 472.764 1112.97 472.105 1113.81 471.445 1114.87 471.116 1116.15 471.116ZM1283.99 469.028C1291.28 469.028 1298.56 469.028 1305.85 469.028 1305.85 498.22 1305.85 527.412 1305.85 556.604 1305.85 562.611 1306.75 568.123 1308.55 573.141 1310.35 578.159 1312.97 582.481 1316.41 586.107 1319.86 589.733 1324.08 592.553 1329.08 594.568 1334.09 596.582 1339.75 597.59 1346.07 597.59 1352.4 597.59 1358.06 596.582 1363.07 594.568 1368.07 592.553 1372.29 589.733 1375.73 586.107 1379.18 582.481 1381.8 578.177 1383.6 573.196 1385.4 568.215 1386.3 562.72 1386.3 556.714 1386.3 527.485 1386.3 498.257 1386.3 469.028 1393.59 469.028 1400.87 469.028 1408.16 469.028 1408.16 498.257 1408.16 527.485 1408.16 556.714 1408.16 565.065 1406.72 572.793 1403.83 579.899 1400.95 587.004 1396.85 593.158 1391.53 598.359 1386.2 603.56 1379.7 607.644 1372.01 610.611 1364.33 613.577 1355.68 615.061 1346.07 615.061 1336.47 615.061 1327.84 613.577 1320.2 610.611 1312.55 607.644 1306.05 603.56 1300.68 598.359 1295.32 593.158 1291.2 587.004 1288.32 579.899 1285.43 572.793 1283.99 565.065 1283.99 556.714 1283.99 527.485 1283.99 498.257 1283.99 469.028ZM982.881 467.38C993.048 467.38 1001.99 469.028 1009.72 472.324 1017.44 475.621 1024.19 480.089 1029.95 485.73 1027.55 488.807 1025.15 491.883 1022.75 494.96 1022.27 495.619 1021.67 496.169 1020.95 496.608 1020.23 497.048 1019.31 497.268 1018.19 497.268 1016.82 497.268 1015.32 496.608 1013.68 495.29 1012.04 493.971 1009.9 492.524 1007.26 490.949 1004.62 489.374 1001.33 487.928 997.411 486.609 993.488 485.29 988.605 484.631 982.761 484.631 975.876 484.631 969.572 485.913 963.848 488.477 958.124 491.041 953.201 494.759 949.078 499.63 944.955 504.501 941.753 510.435 939.472 517.431 937.19 524.427 936.049 532.356 936.049 541.22 936.049 550.157 937.25 558.142 939.652 565.174 942.054 572.207 945.336 578.141 949.499 582.975 953.661 587.81 958.565 591.509 964.209 594.073 969.852 596.637 975.916 597.919 982.401 597.919 986.404 597.919 989.986 597.663 993.148 597.15 996.31 596.637 999.232 595.85 1001.91 594.788 1004.6 593.725 1007.12 592.37 1009.48 590.722 1011.84 589.074 1014.18 587.114 1016.5 584.843 1017.78 583.818 1019.03 583.305 1020.23 583.305 1021.35 583.305 1022.39 583.744 1023.35 584.624 1026.23 587.48 1029.11 590.337 1031.99 593.194 1026.31 600.08 1019.31 605.428 1010.98 609.237 1002.65 613.046 992.688 614.951 981.08 614.951 970.833 614.951 961.567 613.156 953.281 609.567 944.995 605.977 937.911 600.941 932.027 594.458 926.143 587.975 921.62 580.21 918.458 571.163 915.295 562.116 913.714 552.135 913.714 541.22 913.714 530.305 915.395 520.324 918.758 511.277 922.12 502.231 926.843 494.447 932.927 487.928 939.011 481.408 946.296 476.353 954.782 472.764 963.268 469.174 972.634 467.38 982.881 467.38ZM1060.18 458.589C1062.18 458.589 1064.08 458.955 1065.88 459.688 1067.69 460.421 1069.29 461.409 1070.69 462.655 1072.09 463.9 1073.19 465.347 1073.99 466.995 1074.79 468.643 1075.19 470.42 1075.19 472.324 1075.19 474.156 1074.79 475.896 1073.99 477.544 1073.19 479.192 1072.09 480.62 1070.69 481.829 1069.29 483.038 1067.69 484.009 1065.88 484.741 1064.08 485.474 1062.18 485.84 1060.18 485.84 1058.18 485.84 1056.3 485.474 1054.54 484.741 1052.78 484.009 1051.23 483.038 1049.91 481.829 1048.59 480.62 1047.53 479.192 1046.73 477.544 1045.93 475.896 1045.53 474.156 1045.53 472.324 1045.53 470.42 1045.93 468.643 1046.73 466.995 1047.53 465.347 1048.59 463.9 1049.91 462.655 1051.23 461.409 1052.78 460.421 1054.54 459.688 1056.3 458.955 1058.18 458.589 1060.18 458.589Z" fill="#FFFFFF" fill-rule="evenodd"/><path d="M1429.07 541.66C1448.2 541.66 1467.34 541.66 1486.47 541.66 1486.47 547.117 1486.47 552.575 1486.47 558.032 1467.34 558.032 1448.2 558.032 1429.07 558.032 1429.07 552.575 1429.07 547.117 1429.07 541.66Z" fill="#FFFFFF" fill-rule="evenodd"/><text fill="#000000" fill-opacity="0" font-family="Arial,Arial_MSFontService,sans-serif" font-size="16.3724" x="1429.07" y="555.986">-</text><path d="M2002.91 519.354C1997.15 519.354 1992.12 520.269 1987.84 522.101 1983.56 523.932 1980 526.569 1977.15 530.012 1974.31 533.455 1972.19 537.667 1970.79 542.649 1969.39 547.63 1968.69 553.307 1968.69 559.68 1968.69 566.054 1969.39 571.731 1970.79 576.712 1972.19 581.693 1974.31 585.905 1977.15 589.348 1980 592.791 1983.56 595.41 1987.84 597.205 1992.12 599 1997.15 599.897 2002.91 599.897 2008.59 599.897 2013.56 599 2017.8 597.205 2022.04 595.41 2025.59 592.791 2028.43 589.348 2031.27 585.905 2033.39 581.693 2034.79 576.712 2036.19 571.731 2036.89 566.054 2036.89 559.68 2036.89 553.307 2036.19 547.63 2034.79 542.649 2033.39 537.667 2031.27 533.455 2028.43 530.012 2025.59 526.569 2022.04 523.932 2017.8 522.101 2013.56 520.269 2008.59 519.354 2002.91 519.354ZM2916.68 518.914C2906.03 518.914 2897.83 522.467 2892.06 529.573 2886.3 536.678 2883.42 546.824 2883.42 560.01 2883.42 566.969 2884.08 572.939 2885.4 577.921 2886.72 582.902 2888.62 586.986 2891.1 590.173 2893.58 593.359 2896.62 595.703 2900.23 597.205 2903.83 598.707 2907.91 599.458 2912.47 599.458 2919.12 599.458 2924.9 598.047 2929.83 595.227 2934.75 592.407 2939.33 588.469 2943.58 583.415 2943.58 566.09 2943.58 548.765 2943.58 531.441 2939.81 526.826 2935.73 523.584 2931.33 521.716 2926.92 519.848 2922.04 518.914 2916.68 518.914ZM3041.59 518.365C3031.74 518.365 3023.96 521.002 3018.24 526.276 3012.51 531.551 3008.93 538.766 3007.49 547.923 3028.82 547.923 3050.16 547.923 3071.49 547.923 3071.49 543.601 3070.81 539.627 3069.45 536.001 3068.09 532.375 3066.13 529.261 3063.57 526.661 3061 524.06 3057.86 522.028 3054.14 520.562 3050.42 519.097 3046.23 518.365 3041.59 518.365ZM2424.31 518.365C2414.47 518.365 2406.68 521.002 2400.96 526.276 2395.24 531.551 2391.65 538.766 2390.21 547.923 2411.55 547.923 2432.88 547.923 2454.22 547.923 2454.22 543.601 2453.53 539.627 2452.17 536.001 2450.81 532.375 2448.85 529.261 2446.29 526.661 2443.73 524.06 2440.59 522.028 2436.86 520.562 2433.14 519.097 2428.96 518.365 2424.31 518.365ZM2820.03 505.948C2827.08 505.948 2834.12 505.948 2841.17 505.948 2841.17 541.77 2841.17 577.591 2841.17 613.413 2834.12 613.413 2827.08 613.413 2820.03 613.413 2820.03 577.591 2820.03 541.77 2820.03 505.948ZM2693.2 505.948C2700.24 505.948 2707.29 505.948 2714.33 505.948 2714.33 528.767 2714.33 551.586 2714.33 574.405 2714.33 582.463 2716.31 588.707 2720.27 593.139 2724.24 597.571 2730.26 599.787 2738.35 599.787 2744.35 599.787 2749.94 598.487 2755.1 595.886 2760.26 593.286 2765.05 589.715 2769.45 585.173 2769.45 558.765 2769.45 532.356 2769.45 505.948 2776.49 505.948 2783.54 505.948 2790.58 505.948 2790.58 541.77 2790.58 577.591 2790.58 613.413 2786.34 613.413 2782.1 613.413 2777.85 613.413 2776.41 613.413 2775.21 613.101 2774.25 612.479 2773.29 611.856 2772.73 610.849 2772.57 609.457 2771.93 605.648 2771.29 601.838 2770.65 598.029 2765.61 603.157 2759.98 607.277 2753.78 610.391 2747.57 613.504 2740.39 615.061 2732.22 615.061 2725.82 615.061 2720.19 614.09 2715.35 612.149 2710.51 610.208 2706.45 607.461 2703.16 603.908 2699.88 600.355 2697.4 596.07 2695.72 591.052 2694.04 586.034 2693.2 580.485 2693.2 574.405 2693.2 551.586 2693.2 528.767 2693.2 505.948ZM2078.38 505.948C2085.42 505.948 2092.47 505.948 2099.51 505.948 2099.51 528.767 2099.51 551.586 2099.51 574.405 2099.51 582.463 2101.5 588.707 2105.46 593.139 2109.42 597.571 2115.44 599.787 2123.53 599.787 2129.53 599.787 2135.12 598.487 2140.28 595.886 2145.45 593.286 2150.23 589.715 2154.63 585.173 2154.63 558.765 2154.63 532.356 2154.63 505.948 2161.68 505.948 2168.72 505.948 2175.77 505.948 2175.77 541.77 2175.77 577.591 2175.77 613.413 2171.52 613.413 2167.28 613.413 2163.04 613.413 2161.6 613.413 2160.4 613.101 2159.43 612.479 2158.47 611.856 2157.91 610.849 2157.75 609.457 2157.11 605.648 2156.47 601.838 2155.83 598.029 2150.79 603.157 2145.17 607.277 2138.96 610.391 2132.76 613.504 2125.57 615.061 2117.41 615.061 2111 615.061 2105.38 614.09 2100.53 612.149 2095.69 610.208 2091.63 607.461 2088.35 603.908 2085.06 600.355 2082.58 596.07 2080.9 591.052 2079.22 586.034 2078.38 580.485 2078.38 574.405 2078.38 551.586 2078.38 528.767 2078.38 505.948ZM3041.23 504.3C3048.28 504.3 3054.8 505.362 3060.8 507.487 3066.81 509.611 3072.01 512.724 3076.42 516.826 3080.82 520.929 3084.26 525.947 3086.74 531.88 3089.22 537.814 3090.46 544.627 3090.46 552.318 3090.46 555.322 3090.1 557.318 3089.38 558.307 3088.66 559.296 3087.34 559.79 3085.42 559.79 3059.24 559.79 3033.07 559.79 3006.89 559.79 3007.05 566.53 3008.05 572.408 3009.89 577.426 3011.73 582.444 3014.27 586.601 3017.52 589.898 3020.76 593.194 3024.62 595.667 3029.1 597.315 3033.59 598.963 3038.59 599.787 3044.11 599.787 3049.24 599.787 3053.68 599.256 3057.44 598.194 3061.2 597.132 3064.43 595.941 3067.11 594.623 3069.79 593.304 3072.05 592.114 3073.89 591.052 3075.73 589.989 3077.34 589.458 3078.7 589.458 3079.58 589.458 3080.34 589.623 3080.98 589.953 3081.62 590.282 3082.18 590.74 3082.66 591.326 3084.66 593.67 3086.66 596.015 3088.66 598.359 3086.02 601.216 3082.92 603.688 3079.36 605.776 3075.79 607.864 3071.97 609.585 3067.89 610.94 3063.81 612.295 3059.58 613.303 3055.22 613.962 3050.86 614.621 3046.55 614.951 3042.31 614.951 3034.15 614.951 3026.62 613.706 3019.74 611.215 3012.85 608.724 3006.91 605.043 3001.9 600.172 2996.9 595.3 2993 589.293 2990.2 582.151 2987.39 575.009 2985.99 566.786 2985.99 557.483 2985.99 550.011 2987.25 543.033 2989.78 536.55 2992.3 530.067 2995.94 524.427 3000.7 519.628 3005.47 514.83 3011.27 511.076 3018.12 508.366 3024.96 505.655 3032.67 504.3 3041.23 504.3ZM2423.95 504.3C2431 504.3 2437.52 505.362 2443.53 507.487 2449.53 509.611 2454.74 512.724 2459.14 516.826 2463.54 520.929 2466.98 525.947 2469.47 531.88 2471.95 537.814 2473.19 544.627 2473.19 552.318 2473.19 555.322 2472.83 557.318 2472.11 558.307 2471.39 559.296 2470.07 559.79 2468.14 559.79 2441.97 559.79 2415.79 559.79 2389.61 559.79 2389.77 566.53 2390.77 572.408 2392.61 577.426 2394.45 582.444 2397 586.601 2400.24 589.898 2403.48 593.194 2407.34 595.667 2411.83 597.315 2416.31 598.963 2421.31 599.787 2426.84 599.787 2431.96 599.787 2436.4 599.256 2440.17 598.194 2443.93 597.132 2447.15 595.941 2449.83 594.623 2452.51 593.304 2454.78 592.114 2456.62 591.052 2458.46 589.989 2460.06 589.458 2461.42 589.458 2462.3 589.458 2463.06 589.623 2463.7 589.953 2464.34 590.282 2464.9 590.74 2465.38 591.326 2467.38 593.67 2469.39 596.015 2471.39 598.359 2468.75 601.216 2465.64 603.688 2462.08 605.776 2458.52 607.864 2454.7 609.585 2450.61 610.94 2446.53 612.295 2442.31 613.303 2437.94 613.962 2433.58 614.621 2429.28 614.951 2425.04 614.951 2416.87 614.951 2409.34 613.706 2402.46 611.215 2395.58 608.724 2389.63 605.043 2384.63 600.172 2379.62 595.3 2375.72 589.293 2372.92 582.151 2370.12 575.009 2368.72 566.786 2368.72 557.483 2368.72 550.011 2369.98 543.033 2372.5 536.55 2375.02 530.067 2378.66 524.427 2383.43 519.628 2388.19 514.83 2393.99 511.076 2400.84 508.366 2407.68 505.655 2415.39 504.3 2423.95 504.3ZM2319.99 504.3C2327.28 504.3 2333.88 505.399 2339.81 507.596 2345.73 509.794 2350.77 512.871 2354.94 516.826 2353.38 519.134 2351.81 521.442 2350.25 523.749 2349.29 525.361 2347.85 526.166 2345.93 526.166 2344.73 526.166 2343.43 525.764 2342.03 524.958 2340.63 524.152 2338.95 523.291 2336.98 522.376 2335.02 521.46 2332.7 520.599 2330.02 519.793 2327.34 518.988 2324.16 518.585 2320.47 518.585 2317.35 518.585 2314.55 518.988 2312.07 519.793 2309.59 520.599 2307.46 521.698 2305.7 523.09 2303.94 524.482 2302.58 526.112 2301.62 527.979 2300.66 529.847 2300.18 531.844 2300.18 533.968 2300.18 536.752 2300.98 539.059 2302.58 540.891 2304.18 542.722 2306.3 544.297 2308.95 545.616 2311.59 546.934 2314.61 548.124 2318.01 549.187 2321.41 550.249 2324.88 551.329 2328.4 552.428 2331.92 553.527 2335.38 554.809 2338.79 556.274 2342.19 557.739 2345.21 559.534 2347.85 561.658 2350.49 563.783 2352.62 566.365 2354.22 569.405 2355.82 572.445 2356.62 576.126 2356.62 580.448 2356.62 585.429 2355.7 590.026 2353.86 594.238 2352.01 598.45 2349.31 602.095 2345.75 605.171 2342.19 608.248 2337.79 610.665 2332.54 612.424 2327.3 614.182 2321.27 615.061 2314.47 615.061 2306.7 615.061 2299.64 613.852 2293.27 611.435 2286.91 609.017 2281.53 605.867 2277.12 601.985 2278.77 599.567 2280.41 597.15 2282.05 594.733 2282.69 593.78 2283.45 593.048 2284.33 592.535 2285.21 592.022 2286.33 591.766 2287.69 591.766 2289.13 591.766 2290.57 592.26 2292.01 593.249 2293.46 594.238 2295.2 595.337 2297.24 596.546 2299.28 597.754 2301.74 598.853 2304.62 599.842 2307.5 600.831 2311.11 601.326 2315.43 601.326 2319.11 601.326 2322.29 600.849 2324.98 599.897 2327.66 598.945 2329.88 597.681 2331.64 596.106 2333.4 594.531 2334.72 592.682 2335.6 590.557 2336.48 588.433 2336.92 586.198 2336.92 583.854 2336.92 580.924 2336.1 578.488 2334.46 576.547 2332.82 574.606 2330.68 572.958 2328.04 571.603 2325.4 570.247 2322.37 569.057 2318.97 568.031 2315.57 567.006 2312.09 565.925 2308.53 564.79 2304.96 563.654 2301.48 562.372 2298.08 560.944 2294.68 559.516 2291.65 557.684 2289.01 555.45 2286.37 553.216 2284.23 550.487 2282.59 547.264 2280.95 544.041 2280.13 540.121 2280.13 535.506 2280.13 531.331 2281.01 527.357 2282.77 523.584 2284.53 519.812 2287.09 516.497 2290.45 513.64 2293.82 510.783 2297.98 508.512 2302.94 506.827 2307.9 505.142 2313.59 504.3 2319.99 504.3ZM2002.91 504.3C2011.48 504.3 2019.2 505.6 2026.09 508.201 2032.97 510.801 2038.82 514.501 2043.62 519.299 2048.42 524.097 2052.12 529.902 2054.73 536.715 2057.33 543.528 2058.63 551.146 2058.63 559.57 2058.63 568.068 2057.33 575.723 2054.73 582.536 2052.12 589.348 2048.42 595.154 2043.62 599.952 2038.82 604.75 2032.97 608.45 2026.09 611.05 2019.2 613.651 2011.48 614.951 2002.91 614.951 1994.34 614.951 1986.6 613.651 1979.67 611.05 1972.75 608.45 1966.87 604.75 1962.02 599.952 1957.18 595.154 1953.46 589.348 1950.86 582.536 1948.25 575.723 1946.95 568.068 1946.95 559.57 1946.95 551.146 1948.25 543.528 1950.86 536.715 1953.46 529.902 1957.18 524.097 1962.02 519.299 1966.87 514.501 1972.75 510.801 1979.67 508.201 1986.6 505.6 1994.34 504.3 2002.91 504.3ZM2255.65 504.08C2258.13 504.08 2260.45 504.318 2262.61 504.794 2264.77 505.271 2266.74 506.058 2268.5 507.157 2267.94 511.918 2267.38 516.68 2266.82 521.442 2266.58 523.273 2265.46 524.189 2263.45 524.189 2262.33 524.189 2260.75 523.987 2258.71 523.584 2256.67 523.181 2254.41 522.98 2251.93 522.98 2248.32 522.98 2245.14 523.474 2242.38 524.463 2239.62 525.452 2237.14 526.917 2234.93 528.859 2232.73 530.8 2230.79 533.162 2229.11 535.946 2227.43 538.73 2225.87 541.916 2224.43 545.506 2224.43 568.141 2224.43 590.777 2224.43 613.413 2217.38 613.413 2210.34 613.413 2203.29 613.413 2203.29 577.591 2203.29 541.77 2203.29 505.948 2207.34 505.948 2211.38 505.948 2215.42 505.948 2217.66 505.948 2219.24 506.351 2220.16 507.157 2221.09 507.963 2221.63 509.318 2221.79 511.223 2222.27 516.497 2222.75 521.771 2223.23 527.046 2226.83 519.94 2231.27 514.336 2236.56 510.234 2241.84 506.131 2248.2 504.08 2255.65 504.08ZM1654.04 469.028C1661.32 469.028 1668.61 469.028 1675.89 469.028 1675.89 490.052 1675.89 511.076 1675.89 532.1 1677.97 532.1 1680.05 532.1 1682.13 532.1 1684.46 532.1 1686.38 531.77 1687.9 531.111 1689.42 530.452 1690.74 529.39 1691.86 527.925 1705.43 509.831 1719 491.737 1732.57 473.643 1734.01 471.958 1735.51 470.768 1737.07 470.072 1738.63 469.376 1740.57 469.028 1742.9 469.028 1749.14 469.028 1755.38 469.028 1761.63 469.028 1745.62 489.686 1729.61 510.343 1713.6 531.001 1711.03 534.151 1708.35 536.385 1705.55 537.704 1709.23 538.876 1712.56 541.257 1715.52 544.846 1732.05 567.702 1748.58 590.557 1765.11 613.413 1758.71 613.413 1752.3 613.413 1745.9 613.413 1743.26 613.413 1741.31 613.028 1740.07 612.259 1738.83 611.49 1737.65 610.482 1736.53 609.237 1722.6 590.191 1708.67 571.145 1694.74 552.099 1693.46 550.414 1692.08 549.223 1690.6 548.527 1689.12 547.831 1686.9 547.484 1683.94 547.484 1681.25 547.484 1678.57 547.484 1675.89 547.484 1675.89 569.46 1675.89 591.436 1675.89 613.413 1668.61 613.413 1661.32 613.413 1654.04 613.413 1654.04 565.284 1654.04 517.156 1654.04 469.028ZM1507.17 469.028C1514.5 469.028 1521.82 469.028 1529.15 469.028 1529.15 490.455 1529.15 511.882 1529.15 533.309 1554.36 533.309 1579.58 533.309 1604.8 533.309 1604.8 511.882 1604.8 490.455 1604.8 469.028 1612.12 469.028 1619.45 469.028 1626.77 469.028 1626.77 517.156 1626.77 565.284 1626.77 613.413 1619.45 613.413 1612.12 613.413 1604.8 613.413 1604.8 591.583 1604.8 569.753 1604.8 547.923 1579.58 547.923 1554.36 547.923 1529.15 547.923 1529.15 569.753 1529.15 591.583 1529.15 613.413 1521.82 613.413 1514.5 613.413 1507.17 613.413 1507.17 565.284 1507.17 517.156 1507.17 469.028ZM2614.12 467.38C2620.2 467.38 2625.83 467.801 2630.99 468.643 2636.16 469.486 2640.94 470.694 2645.34 472.269 2649.74 473.844 2653.81 475.767 2657.53 478.038 2661.25 480.309 2664.71 482.836 2667.92 485.62 2665.88 488.624 2663.83 491.627 2661.79 494.63 2660.83 496.095 2659.55 497.011 2657.95 497.377 2656.35 497.744 2654.63 497.414 2652.79 496.389 2650.95 495.436 2648.92 494.282 2646.72 492.927 2644.52 491.572 2641.9 490.29 2638.86 489.081 2635.81 487.873 2632.21 486.829 2628.05 485.95 2623.89 485.071 2618.96 484.631 2613.28 484.631 2604.95 484.631 2597.41 485.95 2590.64 488.587 2583.88 491.224 2578.12 494.997 2573.35 499.905 2568.59 504.813 2564.93 510.765 2562.37 517.76 2559.8 524.756 2558.52 532.576 2558.52 541.22 2558.52 550.231 2559.86 558.307 2562.55 565.449 2565.23 572.591 2569.07 578.635 2574.07 583.58 2579.08 588.524 2585.1 592.297 2592.15 594.897 2599.19 597.498 2607.08 598.798 2615.8 598.798 2622.53 598.798 2628.53 598.084 2633.81 596.656 2639.1 595.227 2644.3 593.231 2649.42 590.667 2649.42 580.118 2649.42 569.57 2649.42 559.021 2641.86 559.021 2634.29 559.021 2626.73 559.021 2625.29 559.021 2624.13 558.655 2623.25 557.922 2622.37 557.19 2621.93 556.274 2621.93 555.175 2621.93 551.403 2621.93 547.63 2621.93 543.857 2637.7 543.857 2653.47 543.857 2669.24 543.857 2669.24 562.391 2669.24 580.924 2669.24 599.458 2661.55 604.659 2653.37 608.541 2644.68 611.105 2636 613.669 2626.57 614.951 2616.4 614.951 2604.15 614.951 2593.09 613.156 2583.2 609.567 2573.31 605.977 2564.89 600.941 2557.92 594.458 2550.96 587.975 2545.59 580.21 2541.83 571.163 2538.07 562.116 2536.19 552.135 2536.19 541.22 2536.19 530.232 2538.01 520.215 2541.65 511.168 2545.29 502.121 2550.5 494.356 2557.26 487.873 2564.03 481.39 2572.21 476.353 2581.82 472.764 2591.43 469.174 2602.19 467.38 2614.12 467.38ZM1889.74 467.38C1899.9 467.38 1908.85 469.028 1916.57 472.324 1924.3 475.621 1931.04 480.089 1936.81 485.73 1934.41 488.807 1932.01 491.883 1929.6 494.96 1929.12 495.619 1928.52 496.169 1927.8 496.608 1927.08 497.048 1926.16 497.268 1925.04 497.268 1923.68 497.268 1922.18 496.608 1920.54 495.29 1918.9 493.971 1916.75 492.524 1914.11 490.949 1911.47 489.374 1908.19 487.928 1904.27 486.609 1900.34 485.29 1895.46 484.631 1889.62 484.631 1882.73 484.631 1876.43 485.913 1870.7 488.477 1864.98 491.041 1860.06 494.759 1855.93 499.63 1851.81 504.501 1848.61 510.435 1846.33 517.431 1844.05 524.427 1842.9 532.356 1842.9 541.22 1842.9 550.157 1844.11 558.142 1846.51 565.174 1848.91 572.207 1852.19 578.141 1856.35 582.975 1860.52 587.81 1865.42 591.509 1871.06 594.073 1876.71 596.637 1882.77 597.919 1889.26 597.919 1893.26 597.919 1896.84 597.663 1900 597.15 1903.17 596.637 1906.09 595.85 1908.77 594.788 1911.45 593.725 1913.97 592.37 1916.33 590.722 1918.7 589.074 1921.04 587.114 1923.36 584.843 1924.64 583.818 1925.88 583.305 1927.08 583.305 1928.2 583.305 1929.24 583.744 1930.2 584.624 1933.09 587.48 1935.97 590.337 1938.85 593.194 1933.17 600.08 1926.16 605.428 1917.84 609.237 1909.51 613.046 1899.54 614.951 1887.94 614.951 1877.69 614.951 1868.42 613.156 1860.14 609.567 1851.85 605.977 1844.77 600.941 1838.88 594.458 1833 587.975 1828.47 580.21 1825.31 571.163 1822.15 562.116 1820.57 552.135 1820.57 541.22 1820.57 530.305 1822.25 520.324 1825.61 511.277 1828.98 502.231 1833.7 494.447 1839.78 487.928 1845.87 481.408 1853.15 476.353 1861.64 472.764 1870.12 469.174 1879.49 467.38 1889.74 467.38ZM2830.24 458.589C2832.24 458.589 2834.14 458.955 2835.94 459.688 2837.74 460.421 2839.34 461.409 2840.75 462.655 2842.15 463.9 2843.25 465.347 2844.05 466.995 2844.85 468.643 2845.25 470.42 2845.25 472.324 2845.25 474.156 2844.85 475.896 2844.05 477.544 2843.25 479.192 2842.15 480.62 2840.75 481.829 2839.34 483.038 2837.74 484.009 2835.94 484.741 2834.14 485.474 2832.24 485.84 2830.24 485.84 2828.24 485.84 2826.36 485.474 2824.59 484.741 2822.83 484.009 2821.29 483.038 2819.97 481.829 2818.65 480.62 2817.59 479.192 2816.79 477.544 2815.99 475.896 2815.59 474.156 2815.59 472.324 2815.59 470.42 2815.99 468.643 2816.79 466.995 2817.59 465.347 2818.65 463.9 2819.97 462.655 2821.29 461.409 2822.83 460.421 2824.59 459.688 2826.36 458.955 2828.24 458.589 2830.24 458.589ZM2943.58 457.161C2950.62 457.161 2957.67 457.161 2964.71 457.161 2964.71 509.245 2964.71 561.329 2964.71 613.413 2960.51 613.413 2956.3 613.413 2952.1 613.413 2950.58 613.413 2949.34 613.101 2948.38 612.479 2947.42 611.856 2946.86 610.849 2946.7 609.457 2945.98 605.171 2945.26 600.886 2944.54 596.601 2939.57 602.095 2933.93 606.527 2927.6 609.896 2921.28 613.266 2913.96 614.951 2905.63 614.951 2898.99 614.951 2892.96 613.76 2887.56 611.38 2882.15 608.999 2877.53 605.501 2873.69 600.886 2869.85 596.271 2866.88 590.539 2864.8 583.69 2862.72 576.84 2861.68 568.947 2861.68 560.01 2861.68 552.099 2862.82 544.718 2865.1 537.869 2867.38 531.02 2870.69 525.104 2875.01 520.123 2879.33 515.142 2884.6 511.223 2890.8 508.366 2897 505.509 2904.03 504.08 2911.87 504.08 2919 504.08 2925.08 505.161 2930.13 507.322 2935.17 509.483 2939.65 512.578 2943.58 516.607 2943.58 496.791 2943.58 476.976 2943.58 457.161Z" fill="#FFFFFF" fill-rule="evenodd"/></g></svg>