<svg width="886" height="578" xmlns="http://www.w3.org/2000/svg" xmlns:xlink="http://www.w3.org/1999/xlink" overflow="hidden"><defs><clipPath id="clip0"><rect x="-46" y="88" width="886" height="578"/></clipPath></defs><g clip-path="url(#clip0)" transform="translate(46 -88)"><path d="M111.972 473.236-45 582.212 716.727 665 839 420.015 820.824 382 111.972 473.236Z" fill-rule="evenodd"/><path d="M172 497.895 554.332 550.573 755 369 755 405.987 552.655 587 173.118 533.761 172 497.895Z" fill="#FFFFFF" fill-rule="evenodd"/><path d="M552.826 531 767 339.045 373.106 285 158 476.955 552.826 531Z" fill-rule="evenodd"/><path d="M157 477 157 496.438 554 550 554 532.29 157 477Z" fill-rule="evenodd"/><path d="M553 531.381 553 550 766 358.619 766 340 553 531.381Z" fill-rule="evenodd"/><path d="M158 531 158 550.438 554 604 554 586.29 158 531Z" fill-rule="evenodd"/><path d="M553 585.47 553 604 766 413.53 766 395 553 585.47Z" fill-rule="evenodd"/><path d="M157 496 157 531.287 173 533 173 498.056 157 496Z" fill-rule="evenodd"/><path d="M141 359.99 141 410.348 346.221 495 731 369.213 731 320 346.653 445.077 141 359.99Z" fill="#FFFFFF" fill-rule="evenodd"/><path d="M129 341.15 346.533 431 742 301.511 475.363 255 129 341.15Z" fill-rule="evenodd"/><path d="M129 341 129 356.085 346 446 346 430.915 129 341Z" fill-rule="evenodd"/><path d="M346 430.8 346 446 741 317.2 741 302 346 430.8Z" fill-rule="evenodd"/><path d="M129 406 129 420.941 346 510 346 495.059 129 406Z" fill-rule="evenodd"/><path d="M346 494.8 346 510 741 381.2 741 366 346 494.8Z" fill-rule="evenodd"/><path d="M129 356 129 406.19 141 411 141 360.533 129 356Z" fill-rule="evenodd"/><path d="M184 302.987 184 221.241 431.484 280.253 733 169 733 251.714 431.002 362 184 302.987Z" fill="#FFFFFF" fill-rule="evenodd"/><path d="M172 205.427 431.497 267 747 152.25 447.365 114 172 205.427Z" fill-rule="evenodd"/><path d="M172 205 172 218.6 431 281 431 266.6 172 205Z" fill-rule="evenodd"/><path d="M431 266.044 431 280 745 165.558 745 152 431 266.044Z" fill-rule="evenodd"/><path d="M172 300 172 313.6 431 376 431 361.6 172 300Z" fill-rule="evenodd"/><path d="M431 362.044 431 376 744 261.558 744 248 431 362.044Z" fill-rule="evenodd"/><path d="M172 219 172 300.614 184 303 184 221.864 172 219Z" fill-rule="evenodd"/><path d="M427.972 202.859C432.223 201.382 436.475 199.905 440.726 198.428 468.251 203.454 495.776 208.48 523.301 213.506 519.05 214.983 514.798 216.46 510.547 217.937 483.022 212.911 455.497 207.885 427.972 202.859ZM428.403 187.861C432.655 186.384 436.906 184.907 441.157 183.43 451.052 185.237 460.948 187.043 470.843 188.85 472.917 188.129 474.992 187.409 477.066 186.688 476.333 186.647 475.601 186.606 474.868 186.565 479.777 184.86 484.685 183.154 489.594 181.449 510.623 182.896 531.652 184.343 552.682 185.79 540.9 181.13 529.119 176.47 517.337 171.81 522.158 170.134 526.979 168.459 531.8 166.784 558.551 178.174 585.302 189.563 612.053 200.952 607.32 202.597 602.586 204.242 597.853 205.886 587.452 201.153 577.05 196.419 566.648 191.686 542.223 190.323 517.797 188.96 493.37 187.598 494.741 187.848 496.111 188.098 497.482 188.348 494.107 189.521 490.732 190.693 487.358 191.866 508.82 195.785 530.283 199.704 551.745 203.623 547.494 205.1 543.243 206.577 538.991 208.054 517.529 204.135 496.066 200.216 474.604 196.297 472.544 197.013 470.484 197.729 468.424 198.444 462.919 197.439 457.414 196.434 451.909 195.429 453.969 194.713 456.029 193.997 458.089 193.282 448.194 191.475 438.299 189.668 428.403 187.861ZM491.382 157.336C495.896 155.768 500.411 154.2 504.925 152.631 528.617 156.957 552.31 161.284 576.002 165.61 603.318 170.598 622.367 171.219 633.149 167.473 643.93 163.727 635.663 159.36 608.347 154.372 584.655 150.045 560.962 145.719 537.27 141.393 541.74 139.84 546.211 138.287 550.681 136.733 575.976 141.352 601.271 145.971 626.566 150.59 662.802 157.207 671.036 163.949 651.27 170.816 631.504 177.684 603.503 177.81 567.267 171.193 541.972 166.574 516.677 161.955 491.382 157.336ZM387.665 192.154C389.681 191.453 392.619 191.06 396.478 190.975 400.337 190.89 403.87 191.14 407.075 191.726 410.281 192.311 412.323 193.079 413.202 194.029 414.081 194.979 413.513 195.805 411.497 196.505 409.481 197.206 406.543 197.599 402.684 197.684 398.824 197.769 395.292 197.519 392.086 196.933 388.881 196.348 386.839 195.58 385.959 194.63 385.08 193.68 385.649 192.854 387.665 192.154ZM348.752 205.12C354.625 203.079 362.981 201.469 373.819 200.288 382.6 201.892 391.38 203.495 400.16 205.098 386.595 205.084 376.306 206.295 369.293 208.731 362.018 211.259 360.699 214.247 365.337 217.696 369.975 221.145 378.426 223.989 390.691 226.228 402.537 228.391 415.596 229.486 429.868 229.514 444.14 229.541 454.914 228.291 462.19 225.763 469.114 223.358 470.527 220.503 466.429 217.199 475.139 218.789 483.85 220.38 492.56 221.97 491.091 225.14 487.595 227.685 482.073 229.603 471.028 233.441 455.256 235.486 434.757 235.738 414.257 235.991 395.018 234.475 377.04 231.193 358.365 227.782 346.176 223.559 340.475 218.522 334.773 213.485 337.533 209.018 348.752 205.12Z" fill="#FFFFFF" fill-rule="evenodd"/></g></svg>